<?xml version="1.0" standalone="no"?>
<!DOCTYPE svg PUBLIC "-//W3C//DTD SVG 20010904//EN"
 "http://www.w3.org/TR/2001/REC-SVG-20010904/DTD/svg10.dtd">
<svg version="1.0" xmlns="http://www.w3.org/2000/svg"
 width="100.000000pt" height="100.000000pt" viewBox="0 0 100.000000 100.000000"
 preserveAspectRatio="xMidYMid meet">
<metadata>
Created by potrace 1.16, written by Peter Selinger 2001-2019
</metadata>
<g transform="translate(0.000000,100.000000) scale(0.100000,-0.100000)"
fill="#000000" stroke="none">
<path d="M180 850 c0 -5 7 -10 15 -10 8 0 15 5 15 10 0 6 -7 10 -15 10 -8 0
-15 -4 -15 -10z"/>
<path d="M120 830 c0 -5 9 -10 21 -10 11 0 17 5 14 10 -3 6 -13 10 -21 10 -8
0 -14 -4 -14 -10z"/>
<path d="M75 810 c-3 -5 3 -10 15 -10 12 0 18 5 15 10 -3 6 -10 10 -15 10 -5
0 -12 -4 -15 -10z"/>
<path d="M188 783 c6 -2 18 -2 25 0 6 3 1 5 -13 5 -14 0 -19 -2 -12 -5z"/>
<path d="M240 755 c0 -15 4 -24 10 -20 6 3 10 12 10 20 0 8 -4 17 -10 20 -6 4
-10 -5 -10 -20z"/>
<path d="M171 723 c-8 -15 -13 -16 -30 -5 -13 7 -21 8 -21 2 0 -5 -7 -10 -15
-10 -8 0 -15 -5 -15 -11 0 -8 -4 -8 -14 0 -21 17 -38 -9 -21 -32 7 -10 10 -27
7 -39 -5 -19 -2 -20 31 -14 39 7 36 11 50 -59 3 -11 5 1 6 26 0 25 -5 54 -13
64 -12 17 -16 17 -30 6 -11 -10 -20 -11 -27 -4 -18 18 38 46 80 40 20 -3 30
-3 24 0 -18 7 -16 23 2 23 17 0 20 16 6 25 -6 3 -14 -3 -20 -12z"/>
<path d="M15 720 c3 -5 8 -10 11 -10 2 0 4 5 4 10 0 6 -5 10 -11 10 -5 0 -7
-4 -4 -10z"/>
<path d="M212 718 c-16 -16 -15 -28 3 -28 8 0 15 9 15 20 0 23 -2 24 -18 8z"/>
<path d="M210 671 c0 -6 -13 -11 -30 -11 -20 0 -30 -5 -30 -16 0 -12 9 -14 43
-12 34 2 42 7 42 22 0 11 -6 21 -12 24 -7 2 -13 -1 -13 -7z"/>
<path d="M240 591 c0 -17 4 -31 9 -31 5 0 9 11 9 25 0 14 -4 28 -9 31 -5 3 -9
-9 -9 -25z"/>
<path d="M420 610 c0 -5 5 -10 10 -10 6 0 10 5 10 10 0 6 -4 10 -10 10 -5 0
-10 -4 -10 -10z"/>
<path d="M381 564 c0 -11 3 -14 6 -6 3 7 2 16 -1 19 -3 4 -6 -2 -5 -13z"/>
<path d="M318 540 c2 -16 6 -30 8 -30 2 0 4 14 4 30 0 17 -4 30 -8 30 -5 0 -7
-13 -4 -30z"/>
<path d="M920 540 c0 -5 5 -10 10 -10 6 0 10 5 10 10 0 6 -4 10 -10 10 -5 0
-10 -4 -10 -10z"/>
<path d="M101 514 c0 -11 3 -14 6 -6 3 7 2 16 -1 19 -3 4 -6 -2 -5 -13z"/>
<path d="M580 486 c0 -9 5 -16 10 -16 6 0 10 4 10 9 0 6 -4 13 -10 16 -5 3
-10 -1 -10 -9z"/>
</g>
</svg>
